<?xml version="1.0" encoding="UTF-8" standalone="no"?>
<!-- Created with Inkscape (http://www.inkscape.org/) -->

<svg
   xmlns:dc="http://purl.org/dc/elements/1.1/"
   xmlns:cc="http://creativecommons.org/ns#"
   xmlns:rdf="http://www.w3.org/1999/02/22-rdf-syntax-ns#"
   xmlns:svg="http://www.w3.org/2000/svg"
   xmlns="http://www.w3.org/2000/svg"
   xmlns:sodipodi="http://sodipodi.sourceforge.net/DTD/sodipodi-0.dtd"
   xmlns:inkscape="http://www.inkscape.org/namespaces/inkscape"
   width="394"
   height="90"
   viewBox="0 0 394 90.000001"
   id="svg2"
   version="1.1"
   inkscape:version="0.91 r13725"
   sodipodi:docname="logo.svg">
  <defs
     id="defs4">
    <clipPath
       id="clipPath3354"
       clipPathUnits="userSpaceOnUse">
      <path
         inkscape:connector-curvature="0"
         id="path3356"
         d="m 0,68.607 314.358,0 0,-68.547 L 0,0.06 0,68.607 Z" />
    </clipPath>
    <clipPath
       id="clipPath3390"
       clipPathUnits="userSpaceOnUse">
      <path
         inkscape:connector-curvature="0"
         id="path3392"
         d="m 0,68.607 314.358,0 0,-68.547 L 0,0.06 0,68.607 Z" />
    </clipPath>
    <clipPath
       id="clipPath3406"
       clipPathUnits="userSpaceOnUse">
      <path
         inkscape:connector-curvature="0"
         id="path3408"
         d="m 0,68.607 314.358,0 0,-68.547 L 0,0.06 0,68.607 Z" />
    </clipPath>
  </defs>
  <sodipodi:namedview
     id="base"
     pagecolor="#ffffff"
     bordercolor="#666666"
     borderopacity="1.0"
     inkscape:pageopacity="0.0"
     inkscape:pageshadow="2"
     inkscape:zoom="2.8"
     inkscape:cx="215.95352"
     inkscape:cy="72.986416"
     inkscape:document-units="px"
     inkscape:current-layer="g3344"
     showgrid="false"
     inkscape:window-width="1920"
     inkscape:window-height="1028"
     inkscape:window-x="-8"
     inkscape:window-y="-8"
     inkscape:window-maximized="1"
     fit-margin-top="0"
     fit-margin-left="0"
     fit-margin-right="0"
     fit-margin-bottom="0"
     units="px" />
  <metadata
     id="metadata7">
    <rdf:RDF>
      <cc:Work
         rdf:about="">
        <dc:format>image/svg+xml</dc:format>
        <dc:type
           rdf:resource="http://purl.org/dc/dcmitype/StillImage" />
        <dc:title></dc:title>
      </cc:Work>
    </rdf:RDF>
  </metadata>
  <g
     inkscape:label="Layer 1"
     inkscape:groupmode="layer"
     id="layer1"
     transform="translate(0,-962.36216)">
    <g
       transform="matrix(1.25,0,0,-1.25,0.5596385,1050.7787)"
       inkscape:label="mid logo"
       id="g3344">
      <g
         transform="translate(26.546,67.903)"
         id="g3346">
        <path
           inkscape:connector-curvature="0"
           id="path3348"
           style="fill:#00539b;fill-opacity:1;fill-rule:nonzero;stroke:none"
           d="m 0,0 c 0.4,-3.9 -0.1,-8 0.5,-11.9 0.2,-0.3 0.5,0.2 0.4,0.3 l 3.8,10.6 1,0.9 27,-0.4 c 2.1,-0.5 3.8,-2.2 4.6,-4.3 0.8,-2.6 -0.2,-5.7 0.6,-8.1 1.1,1.2 1.6,3 2,4.6 0.9,2 1.4,4.2 2.2,6.3 0.2,0.3 0.7,1.2 1.4,1.4 l 2.6,0.2 29.1,-0.3 c 0.5,-0.6 0.1,-1.5 0.2,-2.2 0.1,-2.5 0,-5.5 0.2,-7.9 1.6,3.3 2.6,6.6 3.7,10 l 25.1,0 1.1,-0.2 c -1.6,-5.5 -3.6,-10.4 -5.6,-15.9 -7.8,-0.2 -15,0.1 -22.6,0 -0.6,-0.4 -1.4,-1 -1.5,-1.7 0,-10.5 -0.1,-19.3 -0.3,-29.7 -0.2,-1.2 0.3,-2.399 1.4,-3 l 4.4,-0.399 26.1,-0.201 c -1.6,-5.6 -3.6,-10.299 -5.3,-15.5 l -43.2,0.3 c -2.7,0.401 -5.4,2.5 -6.3,5.199 -1.2,6.702 -0.3,12.601 -0.5,19.501 0.1,8.1 0,15.5 0.1,23.8 -0.2,0.7 -0.7,1.4 -1.3,1.8 -3.8,0.2 -8.1,0.6 -11.8,-0.5 l -0.9,-1.3 C 38,-34.8 37.8,-51.199 37.7,-66.9 l -21.509,-0.191 c 0.1,6.6 -0.091,48.591 -0.091,48.591 -0.2,0.7 -0.6,1.6 -1.4,2 -4,0.4 -8.5,0.1 -12.2,0 -0.7,-0.4 -1.2,-1 -1.3,-1.8 C 1.1,-30.5 0.6,-62.6 0.8,-66.6 l -21.5,0.015 c -0.3,13.5 0.2,26.085 0.1,39.285 l 0,10.6 c -1.6,1.3 -3.7,0.4 -5.4,0.8 0.1,0.9 0.4,1.5 0.7,2.4 1.7,4.5 3,9.1 4.9,13.7 L 0,0" />
      </g>
      <g
         id="g3350">
        <g
           clip-path="url(#clipPath3354)"
           id="g3352">
          <g
             transform="translate(26.546,67.903)"
             id="g3358">
            <path
               inkscape:connector-curvature="0"
               id="path3360"
               style="fill:none;stroke:#00539b;stroke-width:1;stroke-linecap:butt;stroke-linejoin:miter;stroke-miterlimit:4;stroke-dasharray:none;stroke-opacity:1"
               d="m 0,0 c 0.4,-3.9 -0.1,-8 0.5,-11.9 0.2,-0.3 0.5,0.2 0.4,0.3 l 3.8,10.6 1,0.9 27,-0.4 c 2.1,-0.5 3.8,-2.2 4.6,-4.3 0.8,-2.6 -0.2,-5.7 0.6,-8.1 1.1,1.2 1.6,3 2,4.6 0.9,2 1.4,4.2 2.2,6.3 0.2,0.3 0.7,1.2 1.4,1.4 l 2.6,0.2 29.1,-0.3 c 0.5,-0.6 0.1,-1.5 0.2,-2.2 0.1,-2.5 0,-5.5 0.2,-7.9 1.6,3.3 2.6,6.6 3.7,10 l 25.1,0 1.1,-0.2 c -1.6,-5.5 -3.6,-10.4 -5.6,-15.9 -7.8,-0.2 -15,0.1 -22.6,0 -0.6,-0.4 -1.4,-1 -1.5,-1.7 0,-10.5 -0.1,-19.3 -0.3,-29.7 -0.2,-1.2 0.3,-2.399 1.4,-3 l 4.4,-0.399 26.1,-0.201 c -1.6,-5.6 -3.6,-10.299 -5.3,-15.5 l -43.2,0.3 c -2.7,0.401 -5.4,2.5 -6.3,5.199 -1.2,6.702 -0.3,12.601 -0.5,19.501 0.1,8.1 0,15.5 0.1,23.8 -0.2,0.7 -0.7,1.4 -1.3,1.8 -3.8,0.2 -8.1,0.6 -11.8,-0.5 l -0.9,-1.3 C 38,-34.8 37.8,-51.199 37.7,-66.9 l -21.509,-0.191 c 0.1,6.6 -0.091,48.591 -0.091,48.591 -0.2,0.7 -0.6,1.6 -1.4,2 -4,0.4 -8.5,0.1 -12.2,0 -0.7,-0.4 -1.2,-1 -1.3,-1.8 C 1.1,-30.5 0.6,-62.6 0.8,-66.6 l -21.5,0.015 c -0.3,13.5 0.2,26.085 0.1,39.285 l 0,10.6 c -1.6,1.3 -3.7,0.4 -5.4,0.8 0.1,0.9 0.4,1.5 0.7,2.4 1.7,4.5 3,9.1 4.9,13.7 L 0,0 Z" />
          </g>
        </g>
      </g>
      <g
         transform="translate(119.846,35.204)"
         id="g3362">
        <path
           inkscape:connector-curvature="0"
           id="path3364"
           style="fill:#ed174f;fill-opacity:1;fill-rule:nonzero;stroke:none"
           d="m 0,0 c 0.3,-1.4 -0.1,-3.2 -1.1,-4.5 -0.7,-0.701 -2.2,-1.3 -3.4,-0.9 -0.293,0.098 -0.876,0.36 -1.294,0.703 C -6.232,-4.338 -6.5,-3.9 -6.5,-3.9 c -1.6,3.6 1.2,7.4 2,11 0.6,1.9 0.9,4 1.2,6 C -2.8,8.7 -1.5,4.1 0,0" />
      </g>
      <g
         transform="translate(115.346,31.603)"
         id="g3366">
        <path
           inkscape:connector-curvature="0"
           id="path3368"
           style="fill:#ffffff;fill-opacity:1;fill-rule:nonzero;stroke:none"
           d="M 0,0 C 0,-0.3 -0.4,-0.3 -0.6,-0.2 -2,0.4 -1.2,1.9 -1.4,2.8 -1,1.8 -0.7,0.7 0,0" />
      </g>
      <g
         transform="translate(117.546,33.403)"
         id="g3370">
        <path
           inkscape:connector-curvature="0"
           id="path3372"
           style="fill:#ffffff;fill-opacity:1;fill-rule:nonzero;stroke:none"
           d="M 0,0 0,0.1 0,0" />
      </g>
      <g
         transform="translate(113.043,49.275)"
         id="g3374">
        <path
           inkscape:connector-curvature="0"
           id="path3376"
           style="fill:none;stroke:#00539b;stroke-width:0.30000001;stroke-linecap:round;stroke-linejoin:bevel;stroke-miterlimit:4;stroke-dasharray:none;stroke-opacity:1"
           d="m 0,0 -0.107,-8.943 -6.844,-15.588 0.035,-0.474 0.062,-0.168 0.104,-0.23 0.27,-0.229 0.311,-0.125 0.416,-0.053 18.539,0.092 0.415,0.173 0.268,0.274 0.153,0.285 0.101,0.336 -0.05,0.298 -6.927,15.389" />
        <g
           transform="translate(6.703,-0.042)"
           id="g3378">
          <path
             inkscape:connector-curvature="0"
             id="path3380"
             style="fill:none;stroke:#00539b;stroke-width:0.30000001;stroke-linecap:round;stroke-linejoin:bevel;stroke-miterlimit:4;stroke-dasharray:none;stroke-opacity:1"
             d="M 0,0 0.043,-8.921" />
        </g>
      </g>
      <g
         id="g3386"
         style="fill:#00539b;fill-opacity:1">
        <g
           clip-path="url(#clipPath3390)"
           id="g3388"
           style="fill:#00539b;fill-opacity:1">
          <g
             transform="matrix(1,0,0,-0.83506145,135.789,31.858)"
             style="font-variant:normal;font-weight:bold;font-size:28.74040031px;font-family:Helvetica;-inkscape-font-specification:Helvetica-Bold;writing-mode:lr-tb;fill:#00539b;stroke:#00539b;stroke-width:0.5;stroke-linecap:butt;stroke-linejoin:miter;stroke-miterlimit:4;stroke-dasharray:none;stroke-opacity:1;fill-opacity:1"
             id="text3394">
            <path
               d="m 2.0348428,0 0,-20.572962 6.2167956,0 3.7328836,14.0333983 3.690784,-14.0333983 6.230829,0 0,20.572962 -3.859184,0 0,-16.194542 L 13.963232,0 9.963713,0 5.8940274,-16.194542 5.8940274,0 2.0348428,0 Z"
               id="path4321"
               style="fill:#00539b;fill-opacity:1" />
            <path
               d="m 25.90543,0 0,-20.572962 4.153886,0 0,20.572962 -4.153886,0 z"
               id="path4323"
               style="fill:#00539b;fill-opacity:1" />
            <path
               d="m 34.00178,-20.572962 7.592069,0 q 2.568112,0 3.915318,0.392935 1.810308,0.533269 3.101381,1.894509 1.291073,1.361239 1.964676,3.339949 0.673603,1.964675 0.673603,4.855555 0,2.5400456 -0.631503,4.3784208 -0.771837,2.2453437 -2.203244,3.6346502 -1.080571,1.0525049 -2.918946,1.64190764 Q 44.11986,0 41.818383,0 l -7.816603,0 0,-20.572962 z m 4.153886,3.480283 0,13.6264295 3.101381,0 q 1.740142,0 2.511979,-0.1964675 1.010404,-0.2526012 1.669974,-0.8560373 0.673603,-0.6034362 1.094605,-1.9787092 0.421002,-1.3893065 0.421002,-3.7749845 0,-2.385678 -0.421002,-3.662717 -0.421002,-1.277039 -1.178805,-1.992742 -0.757804,-0.715704 -1.922576,-0.968305 -0.870071,-0.196467 -3.410116,-0.196467 l -1.866442,0 z"
               id="path4325"
               style="fill:#00539b;fill-opacity:1" />
          </g>
        </g>
      </g>
      <g
         id="g3402"
         style="fill:#00539b;fill-opacity:1">
        <g
           clip-path="url(#clipPath3406)"
           id="g3404"
           style="fill:#00539b;fill-opacity:1">
          <g
             transform="matrix(0.83307671,0,0,-1,189.208,32.2276)"
             style="font-variant:normal;font-weight:600;font-size:25.65369987px;font-family:'Minion Pro';-inkscape-font-specification:MinionPro-Semibold;writing-mode:lr-tb;fill:#00539b;stroke:#00539b;stroke-width:0.25;stroke-linecap:butt;stroke-linejoin:miter;stroke-miterlimit:4;stroke-dasharray:none;stroke-opacity:1;fill-opacity:1"
             id="text3410">
            <path
               d="m 15.751372,-4.5150512 c -1.282685,2.56537 -2.667985,3.9763235 -5.284662,3.9763235 -3.8993628,0 -6.7212698,-3.2836736 -6.7212698,-8.0809155 0,-3.8993628 2.2831793,-7.5165338 6.5673468,-7.5165338 2.7706,0 4.309822,1.103109 4.976818,3.822401 l 0.769611,-0.179576 c -0.153922,-1.3853 -0.307844,-2.411448 -0.513074,-3.873709 -0.718303,-0.128268 -2.462755,-0.692649 -4.540705,-0.692649 -5.7207748,0 -9.8766742,3.565864 -9.8766742,8.9531408 0,4.0789383 2.7962533,8.4913747 9.1840242,8.4913747 1.847067,0 4.001978,-0.513074 4.720281,-0.6926499 0.461767,-0.8465721 1.103109,-2.7449459 1.462261,-3.9250161 l -0.743957,-0.2821907 z"
               id="path4302"
               style="fill:#00539b;fill-opacity:1" />
            <path
               d="m 27.218575,-17.05971 c -5.387277,0 -8.619643,4.284167 -8.619643,8.9018334 0,4.9255104 3.694133,8.5426821 8.337452,8.5426821 4.694627,0 8.568336,-3.3862884 8.568336,-8.9274876 0,-5.1307399 -3.925016,-8.5170279 -8.260491,-8.5170279 l -0.02565,0 z m -0.513074,0.923533 c 3.360635,0 6.182542,2.873214 6.182542,8.2861448 0,4.9255104 -2.56537,7.3113045 -5.412931,7.3113045 -3.617172,0 -6.259503,-3.5145569 -6.259503,-8.3374525 0,-4.7972418 2.616678,-7.2599968 5.464238,-7.2599968 l 0.02565,0 z"
               id="path4304"
               style="fill:#00539b;fill-opacity:1" />
            <path
               d="m 55.104148,-16.674905 -6.054273,0 0,0.718304 c 1.770105,0.102614 2.385794,0.436113 2.514062,1.590529 0.07696,0.718304 0.179576,1.898374 0.179576,4.258514 l 0,6.3108104 -0.07696,0 -10.697593,-12.8781574 -3.796747,0 0,0.718304 c 1.205724,0.102614 1.770105,0.307844 2.283179,0.949187 0.461767,0.615688 0.513074,0.718303 0.513074,2.591023 l 0,5.6438142 c 0,2.3601404 -0.07696,3.591518 -0.153922,4.3867827 -0.128269,1.2570313 -0.769611,1.5905294 -2.257526,1.6674905 l 0,0.7183036 6.079927,0 0,-0.7183036 c -1.744451,-0.1026148 -2.334487,-0.4104592 -2.462755,-1.7187979 -0.07696,-0.7439573 -0.153922,-1.9753349 -0.153922,-4.3354753 l 0,-6.4390782 0.05131,0 10.928476,13.4425383 0.795265,0 0,-10.3384413 c 0,-2.385794 0.05131,-3.54021 0.153922,-4.309821 0.102615,-1.128763 0.718304,-1.462261 2.154911,-1.539222 l 0,-0.718304 z"
               id="path4306"
               style="fill:#00539b;fill-opacity:1" />
            <path
               d="m 70.85552,-12.775543 c -0.128269,-1.487914 -0.256537,-3.360634 -0.256537,-4.540704 l -0.538728,0 c -0.410459,0.48742 -0.615689,0.641342 -1.308339,0.641342 l -10.133211,0 c -0.718304,0 -1.051802,-0.05131 -1.410953,-0.641342 l -0.513074,0 c -0.05131,1.410953 -0.179576,3.078444 -0.307845,4.617666 l 0.743957,0 c 0.307845,-1.128763 0.513074,-1.847067 0.820919,-2.28318 0.333498,-0.590035 0.846572,-0.795264 2.975829,-0.795264 l 1.590529,0 0,12.6216199 c 0,2.0266423 -0.205229,2.2831793 -2.539716,2.4371015 l 0,0.7183036 7.362612,0 0,-0.7183036 c -2.437102,-0.1539222 -2.642331,-0.4104592 -2.642331,-2.4371015 l 0,-12.6216199 1.821413,0 c 1.924027,0 2.36014,0.179575 2.770599,0.795264 0.307845,0.410459 0.538728,1.051802 0.820919,2.28318 l 0.743957,-0.07696 z"
               id="path4308"
               style="fill:#00539b;fill-opacity:1" />
            <path
               d="m 79.654739,0 0,-0.7183036 c -2.103603,-0.1539222 -2.308833,-0.2821907 -2.308833,-2.4884089 l 0,-10.2614795 c 0,-2.180565 0.20523,-2.334487 2.308833,-2.488409 l 0,-0.718304 -6.79823,0 0,0.718304 c 2.103603,0.153922 2.308833,0.307844 2.308833,2.488409 l 0,10.2614795 c 0,2.1805645 -0.20523,2.3344867 -2.308833,2.4884089 l 0,0.7183036 6.79823,0 z"
               id="path4310"
               style="fill:#00539b;fill-opacity:1" />
            <path
               d="m 99.664622,-16.674905 -6.054273,0 0,0.718304 c 1.770105,0.102614 2.385794,0.436113 2.514063,1.590529 0.07696,0.718304 0.179576,1.898374 0.179576,4.258514 l 0,6.3108104 -0.07696,0 -10.697593,-12.8781574 -3.796748,0 0,0.718304 c 1.205724,0.102614 1.770105,0.307844 2.283179,0.949187 0.461767,0.615688 0.513074,0.718303 0.513074,2.591023 l 0,5.6438142 c 0,2.3601404 -0.07696,3.591518 -0.153922,4.3867827 -0.128268,1.2570313 -0.769611,1.5905294 -2.257525,1.6674905 l 0,0.7183036 6.079926,0 0,-0.7183036 c -1.744451,-0.1026148 -2.334486,-0.4104592 -2.462755,-1.7187979 -0.07696,-0.7439573 -0.153922,-1.9753349 -0.153922,-4.3354753 l 0,-6.4390782 0.05131,0 10.928476,13.4425383 0.795264,0 0,-10.3384413 c 0,-2.385794 0.05131,-3.54021 0.153923,-4.309821 0.102614,-1.128763 0.718303,-1.462261 2.15491,-1.539222 l 0,-0.718304 z"
               id="path4312"
               style="fill:#00539b;fill-opacity:1" />
            <path
               d="m 113.46631,-4.1558994 c -0.3335,1.026148 -0.82092,1.8983738 -1.25704,2.4114478 -0.56438,0.6669962 -1.28268,0.8722258 -3.23236,0.8722258 -1.28269,0 -2.18057,-0.0256537 -2.66799,-0.3334981 -0.46176,-0.3334981 -0.61569,-0.8722258 -0.61569,-2.0779497 l 0,-4.8485493 2.43711,0 c 2.23187,0 2.41144,0.1539222 2.74494,2.0009886 l 0.74396,0 0,-4.9255107 -0.74396,0 c -0.3335,1.7187982 -0.46176,1.9240278 -2.7706,1.9240278 l -2.41145,0 0,-5.8233898 c 0,-0.769611 0.0513,-0.820918 0.84658,-0.820918 l 1.94968,0 c 1.84706,0 2.53971,0.179575 2.89887,0.718303 0.33349,0.564382 0.59003,1.128763 0.82091,2.206218 l 0.74396,-0.128268 c -0.077,-1.308339 -0.20523,-3.05279 -0.20523,-3.694133 l -11.44155,0 0,0.718304 c 2.00099,0.179576 2.20622,0.256537 2.20622,2.56537 l 0,10.2101722 c 0,2.0779497 -0.20523,2.2831793 -2.53972,2.4627552 l 0,0.7183036 12.36509,0 c 0.23088,-0.7952647 0.74395,-3.2067125 0.89788,-4.0532846 l -0.76961,-0.1026148 z"
               id="path4314"
               style="fill:#00539b;fill-opacity:1" />
            <path
               d="m 133.45055,-16.674905 -6.05427,0 0,0.718304 c 1.7701,0.102614 2.38579,0.436113 2.51406,1.590529 0.077,0.718304 0.17957,1.898374 0.17957,4.258514 l 0,6.3108104 -0.077,0 -10.69759,-12.8781574 -3.79675,0 0,0.718304 c 1.20573,0.102614 1.77011,0.307844 2.28318,0.949187 0.46177,0.615688 0.51308,0.718303 0.51308,2.591023 l 0,5.6438142 c 0,2.3601404 -0.077,3.591518 -0.15393,4.3867827 -0.12826,1.2570313 -0.76961,1.5905294 -2.25752,1.6674905 l 0,0.7183036 6.07993,0 0,-0.7183036 c -1.74446,-0.1026148 -2.33449,-0.4104592 -2.46276,-1.7187979 -0.077,-0.7439573 -0.15392,-1.9753349 -0.15392,-4.3354753 l 0,-6.4390782 0.0513,0 10.92847,13.4425383 0.79527,0 0,-10.3384413 c 0,-2.385794 0.0513,-3.54021 0.15392,-4.309821 0.10261,-1.128763 0.7183,-1.462261 2.15491,-1.539222 l 0,-0.718304 z"
               id="path4316"
               style="fill:#00539b;fill-opacity:1" />
            <path
               d="m 149.20191,-12.775543 c -0.12827,-1.487914 -0.25653,-3.360634 -0.25653,-4.540704 l -0.53873,0 c -0.41046,0.48742 -0.61569,0.641342 -1.30834,0.641342 l -10.13321,0 c -0.71831,0 -1.0518,-0.05131 -1.41095,-0.641342 l -0.51308,0 c -0.0513,1.410953 -0.17957,3.078444 -0.30784,4.617666 l 0.74395,0 c 0.30785,-1.128763 0.51308,-1.847067 0.82092,-2.28318 0.3335,-0.590035 0.84657,-0.795264 2.97583,-0.795264 l 1.59053,0 0,12.6216199 c 0,2.0266423 -0.20523,2.2831793 -2.53972,2.4371015 l 0,0.7183036 7.36262,0 0,-0.7183036 c -2.4371,-0.1539222 -2.64233,-0.4104592 -2.64233,-2.4371015 l 0,-12.6216199 1.82141,0 c 1.92403,0 2.36014,0.179575 2.7706,0.795264 0.30784,0.410459 0.53873,1.051802 0.82092,2.28318 l 0.74395,-0.07696 z"
               id="path4318"
               style="fill:#00539b;fill-opacity:1" />
          </g>
        </g>
      </g>
      <path
         inkscape:connector-curvature="0"
         id="path3414"
         style="fill:#ed174f;fill-opacity:1;fill-rule:nonzero;stroke:none"
         d="m 137.839,19.503 175.247,0 0,10.203 -175.247,0 0,-10.203 z" />
      <path
         inkscape:connector-curvature="0"
         id="path3416"
         style="fill:none;stroke:#ed174f;stroke-width:0.25;stroke-linecap:butt;stroke-linejoin:miter;stroke-miterlimit:4;stroke-dasharray:none;stroke-opacity:1"
         d="m 313.086,19.503 -175.247,0 0,10.203 175.247,0 0,-10.203 z" />
      <g
         transform="matrix(1,0,0,-1,158.256,21.1827)"
         style="font-variant:normal;font-weight:normal;font-size:9px;font-family:Helvetica;-inkscape-font-specification:Helvetica;writing-mode:lr-tb;fill:#ffffff;fill-opacity:1;fill-rule:nonzero;stroke:none"
         id="text3418">
        <path
           d="m 2.3334961,0 0,-5.6821289 -2.1225586,0 0,-0.7602539 5.1064453,0 0,0.7602539 -2.1313476,0 0,5.6821289 -0.8525391,0 z"
           style=""
           id="path4328" />
        <path
           d="m 6.2829142,0 0,-6.4423828 4.6582028,0 0,0.7602539 -3.8056638,0 0,1.9731445 3.5639648,0 0,0.7558594 -3.5639648,0 0,2.19287109 3.9550778,0 0,0.76025391 -4.8076168,0 z"
           style=""
           id="path4330" />
        <path
           d="m 12.050297,-2.0698242 0.804199,-0.070312 q 0.05713,0.4833984 0.263672,0.7954101 0.210937,0.3076172 0.650391,0.5009766 0.439453,0.18896484 0.988769,0.18896484 0.487793,0 0.861328,-0.14501953 0.373535,-0.14501953 0.553711,-0.39550781 0.18457,-0.2548828 0.18457,-0.5537109 0,-0.3032227 -0.175781,-0.5273438 Q 16.005375,-2.5048828 15.601078,-2.6586914 15.341801,-2.7597656 14.454105,-2.9707031 13.56641,-3.1860352 13.210453,-3.375 q -0.461426,-0.2416992 -0.689941,-0.5976563 -0.224121,-0.3603515 -0.224121,-0.8041992 0,-0.4877929 0.276855,-0.9096679 0.276855,-0.4262696 0.808594,-0.6459961 0.531738,-0.2197266 1.182129,-0.2197266 0.716308,0 1.26123,0.2329102 0.549317,0.2285156 0.84375,0.6767578 0.294434,0.4482422 0.316406,1.0151367 l -0.817382,0.061523 q -0.06592,-0.6108398 -0.448243,-0.9228515 -0.377929,-0.3120117 -1.120605,-0.3120117 -0.773438,0 -1.129395,0.2856445 -0.351562,0.28125 -0.351562,0.6811523 0,0.347168 0.250488,0.5712891 0.246094,0.2241211 1.283203,0.4614258 1.041504,0.2329101 1.428223,0.4086914 0.5625,0.2592773 0.830566,0.6591797 0.268067,0.3955078 0.268067,0.9140625 0,0.5141601 -0.294434,0.97119137 -0.294433,0.45263672 -0.848144,0.70751953 -0.549317,0.25048828 -1.239258,0.25048828 -0.874512,0 -1.467774,-0.25488281 -0.588867,-0.25488281 -0.927246,-0.76464844 -0.333984,-0.51416013 -0.351562,-1.16015623 z"
           style=""
           id="path4332" />
        <path
           d="m 20.054497,0 0,-5.6821289 -2.122559,0 0,-0.7602539 5.106445,0 0,0.7602539 -2.131347,0 0,5.6821289 -0.852539,0 z"
           style=""
           id="path4334" />
        <path
           d="m 24.131355,0 0,-6.4423828 0.852539,0 0,6.4423828 -0.852539,0 z"
           style=""
           id="path4336" />
        <path
           d="m 26.551546,0 0,-6.4423828 0.874512,0 3.383789,5.0581055 0,-5.0581055 0.817383,0 0,6.4423828 -0.874512,0 -3.383789,-5.0625 0,5.0625 -0.817383,0 z"
           style=""
           id="path4338" />
        <path
           d="m 36.144985,-2.5268555 0,-0.7558593 2.729004,-0.00439 0,2.39062502 q -0.628418,0.50097657 -1.296387,0.75585938 -0.667968,0.25048828 -1.371093,0.25048828 -0.949219,0 -1.727051,-0.40429687 Q 33.70602,-0.703125 33.310513,-1.472168 q -0.395508,-0.7690429 -0.395508,-1.7182617 0,-0.9404297 0.391113,-1.753418 0.395508,-0.8173828 1.133789,-1.2128906 0.738281,-0.3955078 1.700684,-0.3955078 0.69873,0 1.26123,0.2285156 0.566895,0.2241211 0.887695,0.628418 0.320801,0.4042969 0.487793,1.0546875 l -0.769043,0.2109375 q -0.145019,-0.4921875 -0.360351,-0.7734375 -0.215332,-0.28125 -0.615234,-0.4482422 -0.399903,-0.1713867 -0.887696,-0.1713867 -0.584472,0 -1.010742,0.1801758 -0.42627,0.1757812 -0.689941,0.4658203 -0.259278,0.2900391 -0.404297,0.637207 -0.246094,0.5976563 -0.246094,1.2963867 0,0.8613282 0.294434,1.4414063 0.298828,0.5800781 0.865722,0.86132811 0.566895,0.28125 1.204102,0.28125 0.553711,0 1.081054,-0.2109375 0.527344,-0.21533201 0.799805,-0.45703121 l 0,-1.1997071 -1.894043,0 z"
           style=""
           id="path4340" />
        <path
           d="m 42.743179,0 0,-6.4423828 0.852539,0 0,5.68212889 3.172852,0 0,0.76025391 -4.025391,0 z"
           id="path4342"
           style="" />
        <path
           d="m 47.146816,0 2.474121,-6.4423828 0.918457,0 L 53.176113,0 l -0.971191,0 -0.751465,-1.9511719 -2.693848,0 L 48.05209,0 47.146816,0 Z m 1.858887,-2.6455078 2.184082,0 -0.672363,-1.7841797 q -0.307617,-0.8129883 -0.457032,-1.3359375 -0.123046,0.6196289 -0.347167,1.2304688 l -0.70752,1.8896484 z"
           style=""
           id="path4344" />
        <path
           d="m 53.89418,0 0,-6.4423828 2.416992,0 q 0.738282,0 1.182129,0.1977539 0.448243,0.1933594 0.698731,0.6020508 0.254883,0.4042969 0.254883,0.8481445 0,0.4130859 -0.224121,0.777832 -0.224122,0.3647461 -0.676758,0.5888672 0.584472,0.1713867 0.896484,0.5844727 0.316406,0.4130859 0.316406,0.9755859 0,0.4526367 -0.193359,0.84375 -0.188965,0.38671877 -0.470215,0.59765627 -0.28125,0.2109375 -0.707519,0.32080078 Q 56.965958,0 56.350723,0 L 53.89418,0 Z m 0.852539,-3.7353516 1.393067,0 q 0.566894,0 0.812988,-0.074707 0.325195,-0.09668 0.487793,-0.3208008 0.166992,-0.2241211 0.166992,-0.5625 0,-0.3208008 -0.153808,-0.5625 -0.153809,-0.2460937 -0.439454,-0.3339843 -0.285644,-0.092285 -0.97998,-0.092285 l -1.287598,0 0,1.9467773 z m 0,2.97509769 1.604004,0 q 0.413086,0 0.580078,-0.0307617 0.294434,-0.0527344 0.492188,-0.17578126 0.197754,-0.12304682 0.325195,-0.35595702 0.127442,-0.2373047 0.127442,-0.5449219 0,-0.3603515 -0.184571,-0.6240234 -0.18457,-0.2680664 -0.51416,-0.3735352 -0.325195,-0.1098633 -0.94043,-0.1098633 l -1.489746,0 0,2.21484379 z"
           style=""
           id="path4346" />
        <path
           d="m 59.74506,-3.1376953 q 0,-1.6040039 0.861328,-2.5092774 0.861328,-0.9096679 2.223633,-0.9096679 0.89209,0 1.608398,0.4262695 0.716309,0.4262695 1.089844,1.190918 0.37793,0.7602539 0.37793,1.7270508 0,0.9799804 -0.395508,1.7534179 -0.395508,0.77343753 -1.120606,1.17333987 -0.725097,0.39550781 -1.564453,0.39550781 -0.909668,0 -1.625976,-0.43945312 Q 60.483341,-0.76904297 60.114201,-1.5292969 59.74506,-2.2895508 59.74506,-3.1376953 Z m 0.878906,0.013184 q 0,1.1645508 0.624024,1.836914 0.628418,0.66796879 1.573242,0.66796879 0.962402,0 1.582031,-0.67675779 0.624024,-0.6767578 0.624024,-1.9204102 0,-0.7866211 -0.268067,-1.3710937 -0.263672,-0.5888672 -0.777832,-0.909668 -0.509766,-0.3251953 -1.146973,-0.3251953 -0.905273,0 -1.560058,0.6240234 -0.650391,0.6196289 -0.650391,2.0742188 z"
           style=""
           id="path4348" />
        <path
           d="m 67.091522,0 0,-6.4423828 2.856446,0 q 0.861328,0 1.30957,0.1757812 0.448242,0.1713868 0.716308,0.6108399 0.268067,0.4394531 0.268067,0.9711914 0,0.6855469 -0.443848,1.1557617 -0.443847,0.4702148 -1.371094,0.5976563 0.338379,0.1625976 0.514161,0.3208007 0.373535,0.3427735 0.707519,0.8569336 L 72.769257,0 71.696991,0 70.844452,-1.340332 q -0.373535,-0.5800782 -0.615234,-0.8876953 -0.2417,-0.3076172 -0.435059,-0.4306641 -0.188965,-0.1230469 -0.386719,-0.1713867 -0.145019,-0.030762 -0.474609,-0.030762 l -0.98877,0 0,2.8608398 -0.852539,0 z m 0.852539,-3.5991211 1.83252,0 q 0.584472,0 0.914062,-0.1186523 0.32959,-0.1230469 0.500977,-0.3867188 0.171387,-0.2680664 0.171387,-0.5800781 0,-0.4570313 -0.333985,-0.7514649 -0.32959,-0.2944335 -1.045898,-0.2944335 l -2.039063,0 0,2.1313476 z"
           style=""
           id="path4350" />
        <path
           d="m 72.940819,0 2.474121,-6.4423828 0.918457,0 L 78.970116,0 l -0.971192,0 -0.751465,-1.9511719 -2.693847,0 L 73.846092,0 72.940819,0 Z m 1.858887,-2.6455078 2.184082,0 -0.672364,-1.7841797 q -0.307617,-0.8129883 -0.457031,-1.3359375 -0.123047,0.6196289 -0.347168,1.2304688 l -0.707519,1.8896484 z"
           style=""
           id="path4352" />
        <path
           d="m 80.698296,0 0,-5.6821289 -2.122559,0 0,-0.7602539 5.106445,0 0,0.7602539 -2.131347,0 0,5.6821289 -0.852539,0 z"
           style=""
           id="path4354" />
        <path
           d="m 84.212456,-3.1376953 q 0,-1.6040039 0.861328,-2.5092774 0.861328,-0.9096679 2.223633,-0.9096679 0.89209,0 1.608398,0.4262695 0.716309,0.4262695 1.089844,1.190918 0.37793,0.7602539 0.37793,1.7270508 0,0.9799804 -0.395508,1.7534179 -0.395508,0.77343753 -1.120606,1.17333987 -0.725097,0.39550781 -1.564453,0.39550781 -0.909668,0 -1.625976,-0.43945312 -0.716309,-0.43945313 -1.08545,-1.19970706 -0.36914,-0.7602539 -0.36914,-1.6083984 z m 0.878906,0.013184 q 0,1.1645508 0.624023,1.836914 0.628418,0.66796879 1.573243,0.66796879 0.962402,0 1.582031,-0.67675779 0.624023,-0.6767578 0.624023,-1.9204102 0,-0.7866211 -0.268066,-1.3710937 -0.263672,-0.5888672 -0.777832,-0.909668 -0.509766,-0.3251953 -1.146973,-0.3251953 -0.905273,0 -1.560058,0.6240234 -0.650391,0.6196289 -0.650391,2.0742188 z"
           style=""
           id="path4356" />
        <path
           d="m 91.558922,0 0,-6.4423828 2.856445,0 q 0.861328,0 1.30957,0.1757812 0.448243,0.1713868 0.716309,0.6108399 0.268066,0.4394531 0.268066,0.9711914 0,0.6855469 -0.443847,1.1557617 -0.443848,0.4702148 -1.371094,0.5976563 0.338379,0.1625976 0.51416,0.3208007 0.373535,0.3427735 0.70752,0.8569336 L 97.236656,0 96.164391,0 95.311852,-1.340332 q -0.373536,-0.5800782 -0.615235,-0.8876953 -0.241699,-0.3076172 -0.435058,-0.4306641 -0.188965,-0.1230469 -0.386719,-0.1713867 -0.14502,-0.030762 -0.47461,-0.030762 l -0.988769,0 0,2.8608398 -0.852539,0 z m 0.852539,-3.5991211 1.832519,0 q 0.584473,0 0.914063,-0.1186523 0.32959,-0.1230469 0.500976,-0.3867188 0.171387,-0.2680664 0.171387,-0.5800781 0,-0.4570313 -0.333984,-0.7514649 -0.32959,-0.2944335 -1.045899,-0.2944335 l -2.039062,0 0,2.1313476 z"
           style=""
           id="path4358" />
        <path
           d="m 98.260757,0 0,-6.4423828 0.85254,0 0,6.4423828 -0.85254,0 z"
           style=""
           id="path4360" />
        <path
           d="m 100.70731,0 0,-6.4423828 4.65821,0 0,0.7602539 -3.80567,0 0,1.9731445 3.56397,0 0,0.7558594 -3.56397,0 0,2.19287109 3.95508,0 0,0.76025391 -4.80762,0 z"
           style=""
           id="path4362" />
        <path
           d="m 106.47469,-2.0698242 0.8042,-0.070312 q 0.0571,0.4833984 0.26367,0.7954101 0.21094,0.3076172 0.6504,0.5009766 0.43945,0.18896484 0.98876,0.18896484 0.4878,0 0.86133,-0.14501953 0.37354,-0.14501953 0.55371,-0.39550781 0.18457,-0.2548828 0.18457,-0.5537109 0,-0.3032227 -0.17578,-0.5273438 -0.17578,-0.2285156 -0.58008,-0.3823242 -0.25927,-0.1010742 -1.14697,-0.3120117 -0.88769,-0.2153321 -1.24365,-0.4042969 -0.46143,-0.2416992 -0.68994,-0.5976563 -0.22412,-0.3603515 -0.22412,-0.8041992 0,-0.4877929 0.27685,-0.9096679 0.27686,-0.4262696 0.8086,-0.6459961 0.53173,-0.2197266 1.18213,-0.2197266 0.7163,0 1.26123,0.2329102 0.54931,0.2285156 0.84375,0.6767578 0.29443,0.4482422 0.3164,1.0151367 l -0.81738,0.061523 q -0.0659,-0.6108398 -0.44824,-0.9228515 -0.37793,-0.3120117 -1.12061,-0.3120117 -0.77344,0 -1.12939,0.2856445 -0.35157,0.28125 -0.35157,0.6811523 0,0.347168 0.25049,0.5712891 0.2461,0.2241211 1.28321,0.4614258 1.0415,0.2329101 1.42822,0.4086914 0.5625,0.2592773 0.83056,0.6591797 0.26807,0.3955078 0.26807,0.9140625 0,0.5141601 -0.29443,0.97119137 -0.29444,0.45263672 -0.84815,0.70751953 -0.54931,0.25048828 -1.23925,0.25048828 -0.87452,0 -1.46778,-0.25488281 -0.58887,-0.25488281 -0.92724,-0.76464844 -0.33399,-0.51416013 -0.35157,-1.16015623 z"
           style=""
           id="path4364" />
        <path
           d="m 112.94521,0 0,-0.90087891 0.90087,0 0,0.90087891 q 0,0.49658203 -0.17578,0.79980469 -0.17578,0.30761721 -0.5581,0.47460941 L 112.89247,0.93603516 Q 113.14296,0.82617188 113.26161,0.61083984 113.38026,0.39990234 113.39345,0 l -0.44824,0 z"
           style=""
           id="path4366" />
        <path
           d="m 118.13276,0 0,-6.4423828 0.85254,0 0,6.4423828 -0.85254,0 z"
           style=""
           id="path4368" />
        <path
           d="m 120.55295,0 0,-6.4423828 0.87451,0 3.38379,5.0581055 0,-5.0581055 0.81738,0 0,6.4423828 -0.87451,0 -3.38379,-5.0625 0,5.0625 -0.81738,0 z"
           style=""
           id="path4370" />
        <path
           d="m 131.72842,-2.2587891 0.85254,0.2153321 q -0.26807,1.05029294 -0.9668,1.60400387 -0.69434,0.54931641 -1.70068,0.54931641 -1.04151,0 -1.69629,-0.421875 -0.65039,-0.42626953 -0.99317,-1.23046878 -0.33838,-0.8041992 -0.33838,-1.7270508 0,-1.0063476 0.38233,-1.7534179 0.38672,-0.7514649 1.09424,-1.1381836 0.71191,-0.3911133 1.56445,-0.3911133 0.9668,0 1.62598,0.4921875 0.65917,0.4921875 0.91845,1.3842774 l -0.83935,0.1977539 q -0.22412,-0.703125 -0.65039,-1.0239258 -0.42627,-0.3208008 -1.07227,-0.3208008 -0.74268,0 -1.24365,0.355957 -0.49658,0.3559571 -0.69873,0.9580078 -0.20215,0.5976563 -0.20215,1.2348633 0,0.8217774 0.2373,1.4370117 0.2417,0.6108399 0.74707,0.91406254 0.50538,0.30322265 1.09424,0.30322265 0.71631,0 1.21289,-0.41308589 0.49659,-0.413086 0.67237,-1.2260743 z"
           style=""
           id="path4372" />
        <path
           d="m 133.82478,0 0,-0.90087891 0.90088,0 0,0.90087891 -0.90088,0 z"
           style=""
           id="path4374" />
      </g>
    </g>
    <flowRoot
       xml:space="preserve"
       id="flowRoot3461"
       style="font-style:normal;font-weight:normal;font-size:40px;line-height:125%;font-family:sans-serif;letter-spacing:0px;word-spacing:0px;fill:#000000;fill-opacity:1;stroke:none;stroke-width:1px;stroke-linecap:butt;stroke-linejoin:miter;stroke-opacity:1"><flowRegion
         id="flowRegion3463"><rect
           id="rect3465"
           width="212.14285"
           height="113.57143"
           x="150.71428"
           y="590.93365" /></flowRegion><flowPara
         id="flowPara3467" /></flowRoot>    <flowRoot
       xml:space="preserve"
       id="flowRoot3469"
       style="font-style:normal;font-weight:normal;font-size:40px;line-height:125%;font-family:sans-serif;letter-spacing:0px;word-spacing:0px;fill:#000000;fill-opacity:1;stroke:none;stroke-width:1px;stroke-linecap:butt;stroke-linejoin:miter;stroke-opacity:1"><flowRegion
         id="flowRegion3471"><rect
           id="rect3473"
           width="37.142857"
           height="63.57143"
           x="165.35715"
           y="599.14789" /></flowRegion><flowPara
         id="flowPara3475" /></flowRoot>    <flowRoot
       xml:space="preserve"
       id="flowRoot3477"
       style="font-style:normal;font-weight:normal;font-size:40px;line-height:125%;font-family:sans-serif;letter-spacing:0px;word-spacing:0px;fill:#000000;fill-opacity:1;stroke:none;stroke-width:1px;stroke-linecap:butt;stroke-linejoin:miter;stroke-opacity:1"><flowRegion
         id="flowRegion3479"><rect
           id="rect3481"
           width="404.28571"
           height="91.071426"
           x="159.64285"
           y="598.07648" /></flowRegion><flowPara
         id="flowPara3483" /></flowRoot>    <flowRoot
       xml:space="preserve"
       id="flowRoot3485"
       style="font-style:normal;font-weight:normal;font-size:40px;line-height:125%;font-family:sans-serif;letter-spacing:0px;word-spacing:0px;fill:#000000;fill-opacity:1;stroke:none;stroke-width:1px;stroke-linecap:butt;stroke-linejoin:miter;stroke-opacity:1"><flowRegion
         id="flowRegion3487"><rect
           id="rect3489"
           width="400"
           height="94.285713"
           x="160"
           y="596.64789" /></flowRegion><flowPara
         id="flowPara3491" /></flowRoot>    <flowRoot
       xml:space="preserve"
       id="flowRoot3493"
       style="font-style:normal;font-weight:normal;font-size:40px;line-height:125%;font-family:sans-serif;letter-spacing:0px;word-spacing:0px;fill:#000000;fill-opacity:1;stroke:none;stroke-width:1px;stroke-linecap:butt;stroke-linejoin:miter;stroke-opacity:1"><flowRegion
         id="flowRegion3495"><rect
           id="rect3497"
           width="394.28571"
           height="91.428574"
           x="161.42857"
           y="596.64789" /></flowRegion><flowPara
         id="flowPara3499" /></flowRoot>  </g>
</svg>
